<?xml version="1.0" encoding="UTF-8"?>
<svg width="32" height="32" viewBox="0 0 32 32" fill="none" xmlns="http://www.w3.org/2000/svg">
  <path d="M16 2C8.268 2 2 8.268 2 16C2 23.732 8.268 30 16 30C23.732 30 30 23.732 30 16C30 8.268 23.732 2 16 2Z" fill="#D32F2F"/>
  <path d="M16 4C9.373 4 4 9.373 4 16C4 22.627 9.373 28 16 28C22.627 28 28 22.627 28 16C28 9.373 22.627 4 16 4Z" fill="#FF5252"/>
  <path d="M16 6C10.477 6 6 10.477 6 16C6 21.523 10.477 26 16 26C21.523 26 26 21.523 26 16C26 10.477 21.523 6 16 6Z" fill="#FF8A80"/>
  <path d="M16 8C11.582 8 8 11.582 8 16C8 20.418 11.582 24 16 24C20.418 24 24 20.418 24 16C24 11.582 20.418 8 16 8Z" fill="#FFCDD2"/>
  <path d="M16 10C12.686 10 10 12.686 10 16C10 19.314 12.686 22 16 22C19.314 22 22 19.314 22 16C22 12.686 19.314 10 16 10Z" fill="#FFEBEE"/>
  <path d="M16 2L14 0H18L16 2Z" fill="#2E7D32"/>
</svg> 